# xmcd
#
# Track frame offsets: 
#        150
#        22363
#        42781
#        70380
#        90789
#        112130
#        129648
#        148985
#        165488
#        182517
#        200312
#        216225
#        232069
#        246331
#
# Disc length: 3371 seconds
#
# Revision: 0
# Processed by: cddbd v1.5.2PL0 Copyright (c) Steve Scherf et al.
# Submitted via: ExactAudioCopy v0.99pb3
#
DISCID=d10d290e
DTITLE=Jimmy Nalls - I Ain't No Stranger To The Blues
DYEAR=2007
DGENRE=Blues
TTITLE0=The Voo Doo In You
TTITLE1=Another Love Like Mine
TTITLE2=I Ain't No Stranger To The Blues
TTITLE3=Good Luck Money and Gasoline
TTITLE4=Hey Brother
TTITLE5=I Got The Fever
TTITLE6=House Of Love
TTITLE7=In The Time It Takes to Cry
TTITLE8=Devil At My Door
TTITLE9=The Stroll
TTITLE10=Mellow Down Easy
TTITLE11=Down In New Orleans
TTITLE12=It's Mighty Crazy
TTITLE13=Jennifer's Wheel
EXTD=
EXTT0=
EXTT1=
EXTT2=
EXTT3=
EXTT4=
EXTT5=
EXTT6=
EXTT7=
EXTT8=
EXTT9=
EXTT10=
EXTT11=
EXTT12=
EXTT13=
PLAYORDER=
